<svg id="Компонент_23_1" data-name="Компонент 23 – 1" xmlns="http://www.w3.org/2000/svg" width="169.807" height="169.259" viewBox="0 0 169.807 169.259">
  <g id="Сгруппировать_81" data-name="Сгруппировать 81" opacity="0">
    <g id="Сгруппировать_78" data-name="Сгруппировать 78" transform="translate(0)">
      <path id="homesandservice-kreis" d="M159.144,46.133s2.721,5.183,2.851,5.7a15.871,15.871,0,0,0,.907,2.2c4.017,9.2,5.183,16.976,5.831,25.917a99.627,99.627,0,0,1,0,12.44,72.729,72.729,0,0,1-2.2,11.792,85.034,85.034,0,0,1-12.311,26.436A98.569,98.569,0,0,1,133.1,152.913a20.657,20.657,0,0,1-2.721,1.944,81.36,81.36,0,0,1-39.783,12.181c-3.369.13-6.739,0-10.108-.13-2.851-.259-5.831-.648-8.682-1.166A82.671,82.671,0,0,1,7.527,106,68.851,68.851,0,0,1,5.454,94.728c-.259-2.2-.389-4.276-.518-6.479V80.733c.13-2.073.389-4.147.518-6.22A69.63,69.63,0,0,1,7.4,64.146,83.064,83.064,0,0,1,61.954,6.35,83.421,83.421,0,0,1,80.614,2.721a70.965,70.965,0,0,1,10.5-.13c2.98.13,5.961.518,8.941.907A82.339,82.339,0,0,1,150.98,32.785c1.425,1.814,2.851,3.758,4.147,5.572.259.259.389.518.778.518-.13-.259-.389-.518-.518-.778a85.567,85.567,0,0,0-11.144-13.477,84.587,84.587,0,0,0-21.9-15.68A83.449,83.449,0,0,0,87.871,0H79.577A73.894,73.894,0,0,0,68.822,1.3,84.6,84.6,0,0,0,22.689,26.954,83,83,0,0,0,8.434,48.077,86.178,86.178,0,0,0,.4,76.586,69.356,69.356,0,0,0,.011,86.953,52.746,52.746,0,0,0,.4,93.432c.259,2.851.778,5.7,1.3,8.553a82.487,82.487,0,0,0,13.347,30.971A83.691,83.691,0,0,0,31.371,150.45a84.69,84.69,0,0,0,30.971,15.81,80.708,80.708,0,0,0,11.144,2.2c2.333.259,4.795.389,7.257.648H88.26a82.328,82.328,0,0,0,39.265-11.533,85.616,85.616,0,0,0,24.751-22.03,95.542,95.542,0,0,0,6.091-8.682A77.154,77.154,0,0,0,168.6,100.689c.518-2.851.907-5.831,1.166-8.812V81.251a39.547,39.547,0,0,0-.648-6.739,73.992,73.992,0,0,0-2.981-14.125,54.027,54.027,0,0,0-2.462-6.35A48.354,48.354,0,0,0,159.4,46" transform="translate(0.038)" fill="#141414"/>
      <path id="Контур_39" data-name="Контур 39" d="M81.629,0A81.629,81.629,0,1,1,0,81.629,81.629,81.629,0,0,1,81.629,0Z" transform="translate(2.808 6)" fill="#f6a2a2"/>
    </g>
    <g id="Layer_2" data-name="Layer 2" transform="translate(40.808 38)">
      <g id="Layer_1" data-name="Layer 1">
        <path id="Контур_18" data-name="Контур 18" d="M45.025.317a1.079,1.079,0,0,0-1.522,0L.317,43.476A1.079,1.079,0,0,0,.317,45l3.071,3.071a1.107,1.107,0,0,0,1.522,0L6.168,46.81V57.226a1.079,1.079,0,0,0,2.158,0V44.638L44.292,8.672l39.327,39.4a1.107,1.107,0,0,0,1.522,0L88.212,45a1.079,1.079,0,0,0,0-1.522ZM84.38,45.772,45.025,6.39a1.079,1.079,0,0,0-1.522,0L4.149,45.772,2.6,44.265,44.265,2.6,85.93,44.265Z" transform="translate(-0.003 -0.003)" fill="#141414"/>
        <path id="Контур_19" data-name="Контур 19" d="M5.539,55.66A1.079,1.079,0,0,0,4.46,56.739V66.1a1.079,1.079,0,0,0,1.079,1.079H52.682a1.079,1.079,0,0,0,0-2.158H6.59v-8.3A1.079,1.079,0,0,0,5.539,55.66Z" transform="translate(1.705 21.331)" fill="#141414"/>
        <path id="Контур_20" data-name="Контур 20" d="M68,34.34A20.542,20.542,0,0,0,48.956,47.3H5.424a1.079,1.079,0,0,0-.761.318L.347,51.936a1.079,1.079,0,0,0,0,1.522L8.979,62.1a1.079,1.079,0,0,0,1.522,0l3.555-3.555L17.611,62.1a1.079,1.079,0,0,0,.761.318h4.316a1.079,1.079,0,0,0,.761-.318l3.763-3.763,7.94,3.97a1.093,1.093,0,0,0,.484.111H48.956A20.5,20.5,0,1,0,68,34.34ZM48.223,60.249H35.953l-8.41-4.15a1.079,1.079,0,0,0-1.245.207l-4,4H18.828l-4-4a1.079,1.079,0,0,0-1.522,0l-3.569,3.5L3.708,53.775H44.253a1.079,1.079,0,1,0,0-2.158H3.708L5.866,49.46H48.223a20.445,20.445,0,0,0,0,10.79ZM68,73.211A18.356,18.356,0,1,1,86.361,54.854,18.356,18.356,0,0,1,68,73.211Z" transform="translate(0.008 13.158)" fill="#141414"/>
        <path id="Контур_21" data-name="Контур 21" d="M38.676,50.49a1.065,1.065,0,0,0,1.383-.733,14.027,14.027,0,0,1,23.364-6.017,1.079,1.079,0,1,0,1.522-1.522,16.185,16.185,0,0,0-27,6.917,1.079,1.079,0,0,0,.733,1.356Z" transform="translate(14.521 14.355)" fill="#141414"/>
        <path id="Контур_22" data-name="Контур 22" d="M63.422,58.234a14.027,14.027,0,0,1-23.406-6.017,1.079,1.079,0,0,0-2.075.595,16.185,16.185,0,0,0,27,6.917,1.079,1.079,0,1,0-1.522-1.522Z" transform="translate(14.523 19.711)" fill="#141414"/>
        <path id="Контур_23" data-name="Контур 23" d="M53.06,50.665a5.395,5.395,0,1,0,5.395-5.395A5.395,5.395,0,0,0,53.06,50.665Zm8.632,0a3.237,3.237,0,1,1-3.182-3.237A3.237,3.237,0,0,1,61.692,50.665Z" transform="translate(20.334 17.348)" fill="#141414"/>
      </g>
    </g>
  </g>
  <g id="Сгруппировать_80" data-name="Сгруппировать 80" transform="translate(14 17)">
    <g id="Layer_2-2" data-name="Layer 2" transform="translate(32 29.196)">
      <g id="Layer_1-2" data-name="Layer 1">
        <path id="Контур_18-2" data-name="Контур 18" d="M36.44.257a.873.873,0,0,0-1.231,0L.257,35.186a.873.873,0,0,0,0,1.231L2.742,38.9a.9.9,0,0,0,1.231,0l1.019-1.019v8.43a.873.873,0,0,0,1.746,0V36.127L35.847,7.019,67.675,38.9a.9.9,0,0,0,1.231,0l2.485-2.485a.873.873,0,0,0,0-1.231ZM68.291,37.045,36.44,5.172a.873.873,0,0,0-1.231,0L3.358,37.045,2.1,35.825,35.825,2.1l33.72,33.72Z" transform="translate(-0.003 -0.003)" fill="#141414"/>
        <path id="Контур_19-2" data-name="Контур 19" d="M5.333,55.66a.873.873,0,0,0-.873.873v7.579a.873.873,0,0,0,.873.873H43.487a.873.873,0,0,0,0-1.746H6.184V56.522a.873.873,0,0,0-.851-.862Z" transform="translate(0.53 6.649)" fill="#141414"/>
        <path id="Контур_20-2" data-name="Контур 20" d="M55.043,34.34A16.625,16.625,0,0,0,39.627,44.83H4.4a.873.873,0,0,0-.616.257L.287,48.58a.873.873,0,0,0,0,1.231l6.986,7a.873.873,0,0,0,1.231,0l2.877-2.877,2.877,2.877a.873.873,0,0,0,.616.257h3.493a.873.873,0,0,0,.616-.257l3.045-3.045,6.426,3.213a.885.885,0,0,0,.392.09H39.627A16.591,16.591,0,1,0,55.043,34.34ZM39.034,55.309H29.1L22.3,51.95a.873.873,0,0,0-1.008.168l-3.235,3.235h-2.81l-3.235-3.235a.873.873,0,0,0-1.231,0L7.889,54.951,3.008,50.069H35.821a.873.873,0,1,0,0-1.746H3.008l1.746-1.746h34.28a16.547,16.547,0,0,0,0,8.732ZM55.043,65.8A14.856,14.856,0,1,1,69.9,50.943,14.856,14.856,0,0,1,55.043,65.8Z" transform="translate(0.001 4.101)" fill="#141414"/>
        <path id="Контур_21-2" data-name="Контур 21" d="M38.528,48.006a.862.862,0,0,0,1.12-.593,11.352,11.352,0,0,1,18.909-4.87.873.873,0,1,0,1.231-1.231,13.1,13.1,0,0,0-21.853,5.6.873.873,0,0,0,.593,1.1Z" transform="translate(4.526 4.474)" fill="#141414"/>
        <path id="Контур_22-2" data-name="Контур 22" d="M58.555,56.938a11.352,11.352,0,0,1-18.942-4.87.873.873,0,0,0-1.679.481,13.1,13.1,0,0,0,21.853,5.6.873.873,0,1,0-1.231-1.231Z" transform="translate(4.527 6.144)" fill="#141414"/>
        <path id="Контур_23-2" data-name="Контур 23" d="M53.06,49.636a4.366,4.366,0,1,0,4.366-4.366A4.366,4.366,0,0,0,53.06,49.636Zm6.986,0a2.62,2.62,0,1,1-2.575-2.62A2.62,2.62,0,0,1,60.046,49.636Z" transform="translate(6.339 5.408)" fill="#141414"/>
      </g>
    </g>
    <path id="homesandservice-kreis-2" data-name="homesandservice-kreis" d="M127.691,37.017s2.184,4.159,2.288,4.575a12.735,12.735,0,0,0,.728,1.768c3.223,7.383,4.159,13.622,4.679,20.8a79.942,79.942,0,0,1,0,9.982,58.358,58.358,0,0,1-1.768,9.462,68.232,68.232,0,0,1-9.878,21.212A79.092,79.092,0,0,1,106.791,122.7a16.575,16.575,0,0,1-2.184,1.56,65.284,65.284,0,0,1-31.922,9.774c-2.7.1-5.407,0-8.111-.1-2.288-.208-4.679-.52-6.967-.936A66.336,66.336,0,0,1,6.032,85.057,55.246,55.246,0,0,1,4.369,76.01c-.208-1.768-.312-3.431-.416-5.2V64.78c.1-1.664.312-3.327.416-4.991a55.872,55.872,0,0,1,1.56-8.319A66.651,66.651,0,0,1,49.7,5.1,66.938,66.938,0,0,1,64.678,2.184a56.943,56.943,0,0,1,8.423-.1c2.392.1,4.783.416,7.175.728a66.07,66.07,0,0,1,40.865,23.5c1.144,1.456,2.288,3.015,3.327,4.471.208.208.312.416.624.416-.1-.208-.312-.416-.416-.624a68.659,68.659,0,0,0-8.942-10.814A67.873,67.873,0,0,0,98.16,7.175,66.96,66.96,0,0,0,70.5,0H63.846a59.293,59.293,0,0,0-8.63,1.04A67.887,67.887,0,0,0,18.2,21.628,66.6,66.6,0,0,0,6.76,38.577,69.15,69.15,0,0,0,.313,61.453,55.652,55.652,0,0,0,0,69.772a42.324,42.324,0,0,0,.312,5.2c.208,2.288.624,4.575,1.04,6.863a66.188,66.188,0,0,0,10.71,24.852,67.154,67.154,0,0,0,13.1,14.038,67.956,67.956,0,0,0,24.852,12.686,64.762,64.762,0,0,0,8.942,1.768c1.872.208,3.847.312,5.823.52h6.031a66.06,66.06,0,0,0,31.506-9.254,68.7,68.7,0,0,0,19.86-17.677,76.665,76.665,0,0,0,4.887-6.967,61.909,61.909,0,0,0,8.215-21c.416-2.288.728-4.679.936-7.071V65.2a31.732,31.732,0,0,0-.52-5.407,59.371,59.371,0,0,0-2.392-11.334,43.351,43.351,0,0,0-1.976-5.1,38.8,38.8,0,0,0-3.431-6.447" transform="translate(0.037)" fill="#f6a2a2"/>
    <path id="homesandservice-kreis-3" data-name="homesandservice-kreis" d="M122.8,35.6s2.1,4,2.2,4.4a12.248,12.248,0,0,0,.7,1.7c3.1,7.1,4,13.1,4.5,20a76.876,76.876,0,0,1,0,9.6,56.124,56.124,0,0,1-1.7,9.1,65.62,65.62,0,0,1-9.5,20.4A76.064,76.064,0,0,1,102.7,118a15.94,15.94,0,0,1-2.1,1.5,62.784,62.784,0,0,1-30.7,9.4c-2.6.1-5.2,0-7.8-.1-2.2-.2-4.5-.5-6.7-.9A63.8,63.8,0,0,1,5.8,81.8a53.131,53.131,0,0,1-1.6-8.7c-.2-1.7-.3-3.3-.4-5V62.3c.1-1.6.3-3.2.4-4.8a53.732,53.732,0,0,1,1.5-8A64.1,64.1,0,0,1,47.8,4.9,64.375,64.375,0,0,1,62.2,2.1,54.762,54.762,0,0,1,70.3,2c2.3.1,4.6.4,6.9.7a63.54,63.54,0,0,1,39.3,22.6c1.1,1.4,2.2,2.9,3.2,4.3.2.2.3.4.6.4-.1-.2-.3-.4-.4-.6A66.029,66.029,0,0,0,111.3,19,65.274,65.274,0,0,0,94.4,6.9,64.4,64.4,0,0,0,67.8,0H61.4a57.023,57.023,0,0,0-8.3,1A65.287,65.287,0,0,0,17.5,20.8a64.049,64.049,0,0,0-11,16.3,66.5,66.5,0,0,0-6.2,22,53.521,53.521,0,0,0-.3,8,40.7,40.7,0,0,0,.3,5c.2,2.2.6,4.4,1,6.6a63.654,63.654,0,0,0,10.3,23.9,64.583,64.583,0,0,0,12.6,13.5,65.354,65.354,0,0,0,23.9,12.2,62.282,62.282,0,0,0,8.6,1.7c1.8.2,3.7.3,5.6.5h5.8a63.531,63.531,0,0,0,30.3-8.9,66.069,66.069,0,0,0,19.1-17,73.73,73.73,0,0,0,4.7-6.7,59.538,59.538,0,0,0,7.9-20.2c.4-2.2.7-4.5.9-6.8V62.7a30.517,30.517,0,0,0-.5-5.2,57.1,57.1,0,0,0-2.3-10.9,41.687,41.687,0,0,0-1.9-4.9,37.314,37.314,0,0,0-3.3-6.2" transform="translate(2.037 5.196)" fill="#141414"/>
  </g>
</svg>
