<svg id="Компонент_24_1" data-name="Компонент 24 – 1" xmlns="http://www.w3.org/2000/svg" width="169.807" height="169.111" viewBox="0 0 169.807 169.111">
  <g id="Сгруппировать_83" data-name="Сгруппировать 83" opacity="0">
    <g id="Сгруппировать_82" data-name="Сгруппировать 82" transform="translate(0 0)">
      <path id="homesandservice-kreis" d="M159.144,46.133s2.721,5.183,2.851,5.7a15.871,15.871,0,0,0,.907,2.2c4.017,9.2,5.183,16.976,5.831,25.917a99.627,99.627,0,0,1,0,12.44,72.729,72.729,0,0,1-2.2,11.792,85.034,85.034,0,0,1-12.311,26.436A98.569,98.569,0,0,1,133.1,152.913a20.657,20.657,0,0,1-2.721,1.944,81.36,81.36,0,0,1-39.783,12.181c-3.369.13-6.739,0-10.108-.13-2.851-.259-5.831-.648-8.682-1.166A82.671,82.671,0,0,1,7.527,106,68.851,68.851,0,0,1,5.454,94.728c-.259-2.2-.389-4.276-.518-6.479V80.733c.13-2.073.389-4.147.518-6.22A69.63,69.63,0,0,1,7.4,64.146,83.064,83.064,0,0,1,61.954,6.35,83.421,83.421,0,0,1,80.614,2.721a70.965,70.965,0,0,1,10.5-.13c2.98.13,5.961.518,8.941.907A82.339,82.339,0,0,1,150.98,32.785c1.425,1.814,2.851,3.758,4.147,5.572.259.259.389.518.778.518-.13-.259-.389-.518-.518-.778a85.567,85.567,0,0,0-11.144-13.477,84.587,84.587,0,0,0-21.9-15.68A83.449,83.449,0,0,0,87.871,0H79.577A73.894,73.894,0,0,0,68.822,1.3,84.6,84.6,0,0,0,22.689,26.954,83,83,0,0,0,8.434,48.077,86.178,86.178,0,0,0,.4,76.586,69.356,69.356,0,0,0,.011,86.953,52.746,52.746,0,0,0,.4,93.432c.259,2.851.778,5.7,1.3,8.553a82.487,82.487,0,0,0,13.347,30.971A83.691,83.691,0,0,0,31.371,150.45a84.69,84.69,0,0,0,30.971,15.81,80.708,80.708,0,0,0,11.144,2.2c2.333.259,4.795.389,7.257.648H88.26a82.328,82.328,0,0,0,39.265-11.533,85.616,85.616,0,0,0,24.751-22.03,95.542,95.542,0,0,0,6.091-8.682A77.154,77.154,0,0,0,168.6,100.689c.518-2.851.907-5.831,1.166-8.812V81.251a39.547,39.547,0,0,0-.648-6.739,73.992,73.992,0,0,0-2.981-14.125,54.027,54.027,0,0,0-2.462-6.35A48.354,48.354,0,0,0,159.4,46" transform="translate(0.038)" fill="#141414"/>
      <path id="Контур_39" data-name="Контур 39" d="M81.629,0A81.629,81.629,0,1,1,0,81.629,81.629,81.629,0,0,1,81.629,0Z" transform="translate(3.274 5.852)" fill="#f6a2a2"/>
    </g>
    <g id="Layer_2" data-name="Layer 2" transform="translate(42.272 52.584)">
      <g id="Layer_1" data-name="Layer 1">
        <path id="Контур_24" data-name="Контур 24" d="M49.789,46.547H45.516a3.374,3.374,0,0,0-1.079.18V45.468A3.208,3.208,0,0,0,41.2,42.232H36.886a3.375,3.375,0,0,0-1.079.18V41.153a3.208,3.208,0,0,0-3.236-3.236H28.256a3.374,3.374,0,0,0-1.079.18V28.208A3.25,3.25,0,0,0,23.928,25H19.613a3.25,3.25,0,0,0-3.236,3.236V62.492a1.051,1.051,0,0,1-1.812.747l-5.988-6.03a3.305,3.305,0,0,0-4.578,0L.915,60.321a3.305,3.305,0,0,0,0,4.578l13.83,13.733a1.079,1.079,0,1,0,1.521-1.521L2.478,63.377a1.148,1.148,0,0,1,0-1.563l3.056-3.043a1.12,1.12,0,0,1,1.563,0l5.974,6A3.208,3.208,0,0,0,18.6,62.506v-34.3a1.079,1.079,0,0,1,1.079-1.079h4.246a1.079,1.079,0,0,1,1.079,1.079V57a1.079,1.079,0,0,0,2.157,0V41.153a1.051,1.051,0,0,1,1.079-1.079h4.315a1.051,1.051,0,0,1,1.079,1.079V58.426a1.079,1.079,0,1,0,2.157,0V45.468a1.051,1.051,0,0,1,1.079-1.079h4.315a1.051,1.051,0,0,1,1.079,1.079V59.851a1.079,1.079,0,0,0,2.157,0V49.8A1.051,1.051,0,0,1,45.5,48.718h4.287A1.051,1.051,0,0,1,50.868,49.8V64.9c0,8.229-2.019,12.447-2.047,12.447a1.079,1.079,0,0,0,.484,1.383,1.065,1.065,0,0,0,1.383-.484c.1-.18,2.268-4.647,2.268-13.429V49.8a3.208,3.208,0,0,0-3.167-3.25Z" transform="translate(0.006 9.574)" fill="#141414"/>
        <path id="Контур_25" data-name="Контур 25" d="M24.092,41.748H50.009a1.079,1.079,0,0,0,1.079-1.079V26.01l2.476,2.476a1.079,1.079,0,1,0,1.521-1.521L37.812,9.677a1.079,1.079,0,0,0-1.521,0L19.072,26.95a1.079,1.079,0,0,0,1.521,1.521L23.069,26V40.669A1.079,1.079,0,0,0,24.092,41.748Zm1.079-17.9,11.88-11.88,11.88,11.88V39.591H25.171Z" transform="translate(7.212 3.586)" fill="#141414"/>
        <path id="Контур_26" data-name="Контур 26" d="M85.274,0H3.236A3.208,3.208,0,0,0,0,3.236V59.371a3.209,3.209,0,0,0,3.236,3.236h9.888a1.079,1.079,0,0,0,0-2.157H3.236a1.051,1.051,0,0,1-1.079-1.079V3.236A1.051,1.051,0,0,1,3.236,2.157H85.274a1.051,1.051,0,0,1,1.079,1.079V59.371a1.051,1.051,0,0,1-1.079,1.079H56.3a1.079,1.079,0,0,0,0,2.157H85.274a3.208,3.208,0,0,0,3.236-3.236V3.236A3.208,3.208,0,0,0,85.274,0Z" transform="translate(0.008 0)" fill="#141414"/>
        <path id="Контур_27" data-name="Контур 27" d="M81.922,57.1A1.079,1.079,0,0,0,83,56.019V4.2A1.079,1.079,0,0,0,81.922,3.12H4.2A1.079,1.079,0,0,0,3.12,4.2V56A1.079,1.079,0,0,0,4.2,57.083H11.93a1.079,1.079,0,1,0,0-2.157H5.277V5.277H80.843V54.926H54.719a1.079,1.079,0,1,0,0,2.157Z" transform="translate(1.203 1.195)" fill="#141414"/>
      </g>
    </g>
  </g>
  <g id="Сгруппировать_84" data-name="Сгруппировать 84" transform="translate(17 17)">
    <g id="Layer_2-2" data-name="Layer 2" transform="translate(32 40)">
      <g id="Layer_1-2" data-name="Layer 1">
        <path id="Контур_24-2" data-name="Контур 24" d="M40.191,42.393h-3.45a2.724,2.724,0,0,0-.871.145V41.523a2.59,2.59,0,0,0-2.612-2.612H29.775a2.724,2.724,0,0,0-.871.145V38.039a2.59,2.59,0,0,0-2.612-2.612H22.808a2.724,2.724,0,0,0-.871.145V27.59A2.624,2.624,0,0,0,19.314,25H15.831a2.624,2.624,0,0,0-2.612,2.612V55.265a.848.848,0,0,1-1.462.6L6.922,51a2.668,2.668,0,0,0-3.7,0L.737,53.512a2.668,2.668,0,0,0,0,3.7L11.9,68.293a.871.871,0,1,0,1.228-1.228L2,55.98a.927.927,0,0,1,0-1.262l2.467-2.456a.9.9,0,0,1,1.262,0l4.823,4.845a2.59,2.59,0,0,0,4.466-1.831V27.59a.871.871,0,0,1,.871-.871h3.427a.871.871,0,0,1,.871.871V50.833a.871.871,0,0,0,1.742,0V38.039a.848.848,0,0,1,.871-.871H26.28a.848.848,0,0,1,.871.871V51.983a.871.871,0,0,0,1.742,0V41.523a.848.848,0,0,1,.871-.871h3.483a.848.848,0,0,1,.871.871v11.61a.871.871,0,0,0,1.742,0V45.017a.848.848,0,0,1,.871-.871h3.461a.848.848,0,0,1,.871.871V57.208c0,6.642-1.63,10.047-1.652,10.047a.871.871,0,0,0,.391,1.116.86.86,0,0,0,1.116-.391c.078-.145,1.831-3.751,1.831-10.84V45.017a2.59,2.59,0,0,0-2.557-2.624Z" transform="translate(0.006 2.91)" fill="#141414"/>
        <path id="Контур_25-2" data-name="Контур 25" d="M23.074,35.505H44a.871.871,0,0,0,.871-.871V22.8l2,2a.871.871,0,1,0,1.228-1.228L34.149,9.616a.871.871,0,0,0-1.228,0L19.022,23.56a.871.871,0,0,0,1.228,1.228l2-2V34.635A.871.871,0,0,0,23.074,35.505Zm.871-14.446,9.59-9.59,9.59,9.59v12.7H23.945Z" transform="translate(2.196 1.09)" fill="#141414"/>
        <path id="Контур_26-2" data-name="Контур 26" d="M68.836,0H2.612A2.59,2.59,0,0,0,0,2.612V47.926a2.59,2.59,0,0,0,2.612,2.612h7.982a.871.871,0,0,0,0-1.742H2.612a.848.848,0,0,1-.871-.871V2.612a.848.848,0,0,1,.871-.871H68.836a.848.848,0,0,1,.871.871V47.926a.848.848,0,0,1-.871.871H45.448a.871.871,0,0,0,0,1.742H68.836a2.59,2.59,0,0,0,2.612-2.612V2.612A2.59,2.59,0,0,0,68.836,0Z" transform="translate(0.006 0)" fill="#141414"/>
        <path id="Контур_27-2" data-name="Контур 27" d="M66.732,46.693a.871.871,0,0,0,.871-.871V3.991a.871.871,0,0,0-.871-.871H3.991a.871.871,0,0,0-.871.871v41.82a.871.871,0,0,0,.871.871h6.241a.871.871,0,1,0,0-1.742H4.862V4.862h61V44.94H44.772a.871.871,0,1,0,0,1.742Z" transform="translate(0.37 0.363)" fill="#141414"/>
      </g>
    </g>
    <path id="homesandservice-kreis-2" data-name="homesandservice-kreis" d="M127.691,37.017s2.184,4.159,2.288,4.575a12.735,12.735,0,0,0,.728,1.768c3.223,7.383,4.159,13.622,4.679,20.8a79.942,79.942,0,0,1,0,9.982,58.358,58.358,0,0,1-1.768,9.462,68.232,68.232,0,0,1-9.878,21.212A79.092,79.092,0,0,1,106.791,122.7a16.575,16.575,0,0,1-2.184,1.56,65.284,65.284,0,0,1-31.922,9.774c-2.7.1-5.407,0-8.111-.1-2.288-.208-4.679-.52-6.967-.936A66.336,66.336,0,0,1,6.032,85.057,55.246,55.246,0,0,1,4.369,76.01c-.208-1.768-.312-3.431-.416-5.2V64.78c.1-1.664.312-3.327.416-4.991a55.872,55.872,0,0,1,1.56-8.319A66.651,66.651,0,0,1,49.7,5.1,66.938,66.938,0,0,1,64.678,2.184a56.943,56.943,0,0,1,8.423-.1c2.392.1,4.783.416,7.175.728a66.07,66.07,0,0,1,40.865,23.5c1.144,1.456,2.288,3.015,3.327,4.471.208.208.312.416.624.416-.1-.208-.312-.416-.416-.624a68.659,68.659,0,0,0-8.942-10.814A67.873,67.873,0,0,0,98.16,7.175,66.96,66.96,0,0,0,70.5,0H63.846a59.293,59.293,0,0,0-8.63,1.04A67.887,67.887,0,0,0,18.2,21.628,66.6,66.6,0,0,0,6.76,38.577,69.15,69.15,0,0,0,.313,61.453,55.652,55.652,0,0,0,0,69.772a42.324,42.324,0,0,0,.312,5.2c.208,2.288.624,4.575,1.04,6.863a66.188,66.188,0,0,0,10.71,24.852,67.154,67.154,0,0,0,13.1,14.038,67.956,67.956,0,0,0,24.852,12.686,64.762,64.762,0,0,0,8.942,1.768c1.872.208,3.847.312,5.823.52h6.031a66.06,66.06,0,0,0,31.506-9.254,68.7,68.7,0,0,0,19.86-17.677,76.665,76.665,0,0,0,4.887-6.967,61.909,61.909,0,0,0,8.215-21c.416-2.288.728-4.679.936-7.071V65.2a31.732,31.732,0,0,0-.52-5.407,59.371,59.371,0,0,0-2.392-11.334,43.351,43.351,0,0,0-1.976-5.1,38.8,38.8,0,0,0-3.431-6.447" transform="translate(0.037)" fill="#f6a2a2"/>
    <path id="homesandservice-kreis-3" data-name="homesandservice-kreis" d="M122.8,35.6s2.1,4,2.2,4.4a12.248,12.248,0,0,0,.7,1.7c3.1,7.1,4,13.1,4.5,20a76.876,76.876,0,0,1,0,9.6,56.124,56.124,0,0,1-1.7,9.1,65.62,65.62,0,0,1-9.5,20.4A76.064,76.064,0,0,1,102.7,118a15.94,15.94,0,0,1-2.1,1.5,62.784,62.784,0,0,1-30.7,9.4c-2.6.1-5.2,0-7.8-.1-2.2-.2-4.5-.5-6.7-.9A63.8,63.8,0,0,1,5.8,81.8a53.131,53.131,0,0,1-1.6-8.7c-.2-1.7-.3-3.3-.4-5V62.3c.1-1.6.3-3.2.4-4.8a53.732,53.732,0,0,1,1.5-8A64.1,64.1,0,0,1,47.8,4.9,64.375,64.375,0,0,1,62.2,2.1,54.762,54.762,0,0,1,70.3,2c2.3.1,4.6.4,6.9.7a63.54,63.54,0,0,1,39.3,22.6c1.1,1.4,2.2,2.9,3.2,4.3.2.2.3.4.6.4-.1-.2-.3-.4-.4-.6A66.029,66.029,0,0,0,111.3,19,65.274,65.274,0,0,0,94.4,6.9,64.4,64.4,0,0,0,67.8,0H61.4a57.023,57.023,0,0,0-8.3,1A65.287,65.287,0,0,0,17.5,20.8a64.049,64.049,0,0,0-11,16.3,66.5,66.5,0,0,0-6.2,22,53.521,53.521,0,0,0-.3,8,40.7,40.7,0,0,0,.3,5c.2,2.2.6,4.4,1,6.6a63.654,63.654,0,0,0,10.3,23.9,64.583,64.583,0,0,0,12.6,13.5,65.354,65.354,0,0,0,23.9,12.2,62.282,62.282,0,0,0,8.6,1.7c1.8.2,3.7.3,5.6.5h5.8a63.531,63.531,0,0,0,30.3-8.9,66.069,66.069,0,0,0,19.1-17,73.73,73.73,0,0,0,4.7-6.7,59.538,59.538,0,0,0,7.9-20.2c.4-2.2.7-4.5.9-6.8V62.7a30.517,30.517,0,0,0-.5-5.2,57.1,57.1,0,0,0-2.3-10.9,41.687,41.687,0,0,0-1.9-4.9,37.314,37.314,0,0,0-3.3-6.2" transform="translate(2.037 5)" fill="#141414"/>
  </g>
</svg>
