<svg id="Компонент_47_1" data-name="Компонент 47 – 1" xmlns="http://www.w3.org/2000/svg" width="169.807" height="169.111" viewBox="0 0 169.807 169.111">
  <g id="Сгруппировать_162" data-name="Сгруппировать 162" transform="translate(-396.192 -1107)">
    <g id="Сгруппировать_143" data-name="Сгруппировать 143" transform="translate(-499.032 0)">
      <g id="Сгруппировать_77" data-name="Сгруппировать 77" transform="translate(912 1124)">
        <path id="homesandservice-kreis" d="M127.691,37.017s2.184,4.159,2.288,4.575a12.735,12.735,0,0,0,.728,1.768c3.223,7.383,4.159,13.622,4.679,20.8a79.942,79.942,0,0,1,0,9.982,58.358,58.358,0,0,1-1.768,9.462,68.232,68.232,0,0,1-9.878,21.212A79.092,79.092,0,0,1,106.791,122.7a16.575,16.575,0,0,1-2.184,1.56,65.284,65.284,0,0,1-31.922,9.774c-2.7.1-5.407,0-8.111-.1-2.288-.208-4.679-.52-6.967-.936A66.336,66.336,0,0,1,6.032,85.057,55.246,55.246,0,0,1,4.369,76.01c-.208-1.768-.312-3.431-.416-5.2V64.78c.1-1.664.312-3.327.416-4.991a55.872,55.872,0,0,1,1.56-8.319A66.651,66.651,0,0,1,49.7,5.1,66.938,66.938,0,0,1,64.678,2.184a56.943,56.943,0,0,1,8.423-.1c2.392.1,4.783.416,7.175.728a66.07,66.07,0,0,1,40.865,23.5c1.144,1.456,2.288,3.015,3.327,4.471.208.208.312.416.624.416-.1-.208-.312-.416-.416-.624a68.659,68.659,0,0,0-8.942-10.814A67.873,67.873,0,0,0,98.16,7.175,66.96,66.96,0,0,0,70.5,0H63.846a59.293,59.293,0,0,0-8.63,1.04A67.887,67.887,0,0,0,18.2,21.628,66.6,66.6,0,0,0,6.76,38.577,69.15,69.15,0,0,0,.313,61.453,55.652,55.652,0,0,0,0,69.772a42.324,42.324,0,0,0,.312,5.2c.208,2.288.624,4.575,1.04,6.863a66.188,66.188,0,0,0,10.71,24.852,67.154,67.154,0,0,0,13.1,14.038,67.956,67.956,0,0,0,24.852,12.686,64.762,64.762,0,0,0,8.942,1.768c1.872.208,3.847.312,5.823.52h6.031a66.06,66.06,0,0,0,31.506-9.254,68.7,68.7,0,0,0,19.86-17.677,76.665,76.665,0,0,0,4.887-6.967,61.909,61.909,0,0,0,8.215-21c.416-2.288.728-4.679.936-7.071V65.2a31.732,31.732,0,0,0-.52-5.407,59.371,59.371,0,0,0-2.392-11.334,43.351,43.351,0,0,0-1.976-5.1,38.8,38.8,0,0,0-3.431-6.447" transform="translate(0.038)" fill="#f6a2a2"/>
        <path id="homesandservice-kreis-2" data-name="homesandservice-kreis" d="M122.8,35.6s2.1,4,2.2,4.4a12.248,12.248,0,0,0,.7,1.7c3.1,7.1,4,13.1,4.5,20a76.876,76.876,0,0,1,0,9.6,56.124,56.124,0,0,1-1.7,9.1,65.62,65.62,0,0,1-9.5,20.4A76.064,76.064,0,0,1,102.7,118a15.94,15.94,0,0,1-2.1,1.5,62.784,62.784,0,0,1-30.7,9.4c-2.6.1-5.2,0-7.8-.1-2.2-.2-4.5-.5-6.7-.9A63.8,63.8,0,0,1,5.8,81.8a53.131,53.131,0,0,1-1.6-8.7c-.2-1.7-.3-3.3-.4-5V62.3c.1-1.6.3-3.2.4-4.8a53.732,53.732,0,0,1,1.5-8A64.1,64.1,0,0,1,47.8,4.9,64.375,64.375,0,0,1,62.2,2.1,54.762,54.762,0,0,1,70.3,2c2.3.1,4.6.4,6.9.7a63.54,63.54,0,0,1,39.3,22.6c1.1,1.4,2.2,2.9,3.2,4.3.2.2.3.4.6.4-.1-.2-.3-.4-.4-.6A66.029,66.029,0,0,0,111.3,19,65.274,65.274,0,0,0,94.4,6.9,64.4,64.4,0,0,0,67.8,0H61.4a57.023,57.023,0,0,0-8.3,1A65.287,65.287,0,0,0,17.5,20.8a64.049,64.049,0,0,0-11,16.3,66.5,66.5,0,0,0-6.2,22,53.521,53.521,0,0,0-.3,8,40.7,40.7,0,0,0,.3,5c.2,2.2.6,4.4,1,6.6a63.654,63.654,0,0,0,10.3,23.9,64.583,64.583,0,0,0,12.6,13.5,65.354,65.354,0,0,0,23.9,12.2,62.282,62.282,0,0,0,8.6,1.7c1.8.2,3.7.3,5.6.5h5.8a63.531,63.531,0,0,0,30.3-8.9,66.069,66.069,0,0,0,19.1-17,73.73,73.73,0,0,0,4.7-6.7,59.538,59.538,0,0,0,7.9-20.2c.4-2.2.7-4.5.9-6.8V62.7a30.517,30.517,0,0,0-.5-5.2,57.1,57.1,0,0,0-2.3-10.9,41.687,41.687,0,0,0-1.9-4.9,37.314,37.314,0,0,0-3.3-6.2" transform="translate(2.165 5.196)" fill="#141414"/>
      </g>
    </g>
    <g id="Layer_2" data-name="Layer 2" transform="translate(449.092 1159.83)">
      <g id="Layer_1" data-name="Layer 1">
        <path id="Контур_176" data-name="Контур 176" d="M0,54.7l1.68,8.67A.78.78,0,0,0,2.6,64l4.33-.84a.77.77,0,0,0,.5-.33L25.07,36.75a14.85,14.85,0,1,0-9-6.12l-5.39,8a.78.78,0,0,0-.13.34L9.66,45.3,5.88,46a.76.76,0,0,0-.5.33L3.63,48.94a.79.79,0,0,0-.12.59L4.2,53.1l-3.57.69A.78.78,0,0,0,0,54.7ZM15,22.27A13.27,13.27,0,1,1,28.26,35.54,13.27,13.27,0,0,1,15,22.27ZM5.26,54.48a.78.78,0,0,0,.62-.91l-.78-4,1.39-2.05,4-.77a.78.78,0,0,0,.63-.66L12,39.32l5-7.39a14.87,14.87,0,0,0,6.46,4.38L6.33,61.68l-2.16.42L18.85,40.37a.78.78,0,1,0-1.29-.87L2.87,61.23,1.7,55.17Z" fill="#141414"/>
        <path id="Контур_177" data-name="Контур 177" d="M32,0a8.64,8.64,0,0,0-7.86,5.11.78.78,0,1,0,1.42.64,7,7,0,0,1,13.15.73A.783.783,0,0,0,40.2,6,8.61,8.61,0,0,0,32,0Z" fill="#141414"/>
        <path id="Контур_178" data-name="Контур 178" d="M28.79,16.53a3.91,3.91,0,1,0,.06-1.68,6.71,6.71,0,0,1-3.16-3.3.78.78,0,1,0-1.43.62,8.32,8.32,0,0,0,4.53,4.36Zm3.83-3.05a2.34,2.34,0,1,1-2,3.58,7.42,7.42,0,0,0,2.07.07.79.79,0,0,0,.65-.89.76.76,0,0,0-.9-.64,6.77,6.77,0,0,1-2.14-.2,2.34,2.34,0,0,1,2.32-1.92Z" fill="#141414"/>
        <path id="Контур_179" data-name="Контур 179" d="M48,15.11a14.6,14.6,0,0,0-8-6.27.781.781,0,1,0-.47,1.49,13.23,13.23,0,0,1,2.85,23.85,12.92,12.92,0,0,1-5.21,1.88.781.781,0,0,0,.2,1.55l.63-.1,5.08,8.19a.78.78,0,0,0,.25.25l5.46,3.36-.88,3.75a.76.76,0,0,0,.1.59l1.65,2.66a.79.79,0,0,0,.49.35l3.54.83L52.86,61a.78.78,0,0,0,.58.94L62,64a.78.78,0,0,0,1-.6l1-4.3a.77.77,0,0,0-.1-.59L47.3,31.77A14.76,14.76,0,0,0,48,15.11Zm14.36,44-.5,2.14L48,38.83a.781.781,0,0,0-1.33.82L60.56,62l-6-1.41.83-3.54a.78.78,0,0,0-.58-.94l-4-.93L49.5,53.07l.94-4a.78.78,0,0,0-.35-.84L44.3,44.67l-4.7-7.58a14.7,14.7,0,0,0,3.61-1.63,15,15,0,0,0,3-2.49Z" fill="#141414"/>
      </g>
    </g>
  </g>
</svg>
