<svg id="Компонент_46_1" data-name="Компонент 46 – 1" xmlns="http://www.w3.org/2000/svg" width="169.807" height="169.111" viewBox="0 0 169.807 169.111">
  <g id="Сгруппировать_146" data-name="Сгруппировать 146" transform="translate(-1340.192 -1107.292)">
    <g id="Сгруппировать_84" data-name="Сгруппировать 84" transform="translate(1353.192 1124)">
      <path id="homesandservice-kreis" d="M127.691,37.017s2.184,4.159,2.288,4.575a12.735,12.735,0,0,0,.728,1.768c3.223,7.383,4.159,13.622,4.679,20.8a79.942,79.942,0,0,1,0,9.982,58.358,58.358,0,0,1-1.768,9.462,68.232,68.232,0,0,1-9.878,21.212A79.092,79.092,0,0,1,106.791,122.7a16.575,16.575,0,0,1-2.184,1.56,65.284,65.284,0,0,1-31.922,9.774c-2.7.1-5.407,0-8.111-.1-2.288-.208-4.679-.52-6.967-.936A66.336,66.336,0,0,1,6.032,85.057,55.246,55.246,0,0,1,4.369,76.01c-.208-1.768-.312-3.431-.416-5.2V64.78c.1-1.664.312-3.327.416-4.991a55.872,55.872,0,0,1,1.56-8.319A66.651,66.651,0,0,1,49.7,5.1,66.938,66.938,0,0,1,64.678,2.184a56.943,56.943,0,0,1,8.423-.1c2.392.1,4.783.416,7.175.728a66.07,66.07,0,0,1,40.865,23.5c1.144,1.456,2.288,3.015,3.327,4.471.208.208.312.416.624.416-.1-.208-.312-.416-.416-.624a68.659,68.659,0,0,0-8.942-10.814A67.873,67.873,0,0,0,98.16,7.175,66.96,66.96,0,0,0,70.5,0H63.846a59.293,59.293,0,0,0-8.63,1.04A67.887,67.887,0,0,0,18.2,21.628,66.6,66.6,0,0,0,6.76,38.577,69.15,69.15,0,0,0,.313,61.453,55.652,55.652,0,0,0,0,69.772a42.324,42.324,0,0,0,.312,5.2c.208,2.288.624,4.575,1.04,6.863a66.188,66.188,0,0,0,10.71,24.852,67.154,67.154,0,0,0,13.1,14.038,67.956,67.956,0,0,0,24.852,12.686,64.762,64.762,0,0,0,8.942,1.768c1.872.208,3.847.312,5.823.52h6.031a66.06,66.06,0,0,0,31.506-9.254,68.7,68.7,0,0,0,19.86-17.677,76.665,76.665,0,0,0,4.887-6.967,61.909,61.909,0,0,0,8.215-21c.416-2.288.728-4.679.936-7.071V65.2a31.732,31.732,0,0,0-.52-5.407,59.371,59.371,0,0,0-2.392-11.334,43.351,43.351,0,0,0-1.976-5.1,38.8,38.8,0,0,0-3.431-6.447" transform="translate(0.037)" fill="#f6a2a2"/>
      <path id="homesandservice-kreis-2" data-name="homesandservice-kreis" d="M122.8,35.6s2.1,4,2.2,4.4a12.248,12.248,0,0,0,.7,1.7c3.1,7.1,4,13.1,4.5,20a76.876,76.876,0,0,1,0,9.6,56.124,56.124,0,0,1-1.7,9.1,65.62,65.62,0,0,1-9.5,20.4A76.064,76.064,0,0,1,102.7,118a15.94,15.94,0,0,1-2.1,1.5,62.784,62.784,0,0,1-30.7,9.4c-2.6.1-5.2,0-7.8-.1-2.2-.2-4.5-.5-6.7-.9A63.8,63.8,0,0,1,5.8,81.8a53.131,53.131,0,0,1-1.6-8.7c-.2-1.7-.3-3.3-.4-5V62.3c.1-1.6.3-3.2.4-4.8a53.732,53.732,0,0,1,1.5-8A64.1,64.1,0,0,1,47.8,4.9,64.375,64.375,0,0,1,62.2,2.1,54.762,54.762,0,0,1,70.3,2c2.3.1,4.6.4,6.9.7a63.54,63.54,0,0,1,39.3,22.6c1.1,1.4,2.2,2.9,3.2,4.3.2.2.3.4.6.4-.1-.2-.3-.4-.4-.6A66.029,66.029,0,0,0,111.3,19,65.274,65.274,0,0,0,94.4,6.9,64.4,64.4,0,0,0,67.8,0H61.4a57.023,57.023,0,0,0-8.3,1A65.287,65.287,0,0,0,17.5,20.8a64.049,64.049,0,0,0-11,16.3,66.5,66.5,0,0,0-6.2,22,53.521,53.521,0,0,0-.3,8,40.7,40.7,0,0,0,.3,5c.2,2.2.6,4.4,1,6.6a63.654,63.654,0,0,0,10.3,23.9,64.583,64.583,0,0,0,12.6,13.5,65.354,65.354,0,0,0,23.9,12.2,62.282,62.282,0,0,0,8.6,1.7c1.8.2,3.7.3,5.6.5h5.8a63.531,63.531,0,0,0,30.3-8.9,66.069,66.069,0,0,0,19.1-17,73.73,73.73,0,0,0,4.7-6.7,59.538,59.538,0,0,0,7.9-20.2c.4-2.2.7-4.5.9-6.8V62.7a30.517,30.517,0,0,0-.5-5.2,57.1,57.1,0,0,0-2.3-10.9,41.687,41.687,0,0,0-1.9-4.9,37.314,37.314,0,0,0-3.3-6.2" transform="translate(2.037 5)" fill="#141414"/>
    </g>
    <g id="Layer_2" data-name="Layer 2" transform="translate(1390 1159.846)">
      <g id="Layer_1" data-name="Layer 1">
        <path id="Контур_73" data-name="Контур 73" d="M32.55.23a.78.78,0,0,0-1.1,0L.23,31.45a.78.78,0,0,0,0,1.1l2.22,2.22a.8.8,0,0,0,1.1,0l7.38-7.39V61.66A2.32,2.32,0,0,0,13.27,64H50.73a2.32,2.32,0,0,0,2.34-2.34V27.39l7.38,7.39a.8.8,0,0,0,1.1,0l2.22-2.22a.78.78,0,0,0,0-1.1Zm19,61.43a.76.76,0,0,1-.78.78H13.27a.76.76,0,0,1-.78-.78V25.82l2.41-2.41H49.1l2.41,2.41ZM39.75,14l7.8,7.81H16.46L24.25,14ZM25.81,12.49,32,6.29l6.19,6.19ZM61,33.12,32.55,4.64a.78.78,0,0,0-1.1,0L3,33.12,1.88,32,32,1.88,62.12,32Z" fill="#141414"/>
        <path id="Контур_74" data-name="Контур 74" d="M21.07,53.07H14.83a.78.78,0,0,0-.78.78V60.1a.78.78,0,0,0,.78.78h6.24a.78.78,0,0,0,.78-.78V53.85A.78.78,0,0,0,21.07,53.07Zm-.78,6.24H15.61V54.63h4.68Z" fill="#141414"/>
        <path id="Контур_75" data-name="Контур 75" d="M30.44,53.07H24.2a.78.78,0,0,0-.78.78V60.1a.78.78,0,0,0,.78.78h6.24a.78.78,0,0,0,.78-.78V53.85A.78.78,0,0,0,30.44,53.07Zm-.78,6.24H25V54.63h4.68Z" fill="#141414"/>
        <path id="Контур_76" data-name="Контур 76" d="M39.8,53.07H33.56a.78.78,0,0,0-.78.78V60.1a.78.78,0,0,0,.78.78H39.8a.78.78,0,0,0,.78-.78V53.85A.78.78,0,0,0,39.8,53.07ZM39,59.32H34.34V54.63H39Z" fill="#141414"/>
        <path id="Контур_77" data-name="Контур 77" d="M21.07,43.71H14.83a.78.78,0,0,0-.78.78v6.24a.78.78,0,0,0,.78.78h6.24a.78.78,0,0,0,.78-.78V44.49a.78.78,0,0,0-.78-.78ZM20.29,50H15.61V45.27h4.68Z" fill="#141414"/>
        <path id="Контур_78" data-name="Контур 78" d="M30.44,43.71H24.2a.78.78,0,0,0-.78.78v6.24a.78.78,0,0,0,.78.78h6.24a.78.78,0,0,0,.78-.78V44.49a.78.78,0,0,0-.78-.78ZM29.66,50H25V45.27h4.68Z" fill="#141414"/>
        <path id="Контур_79" data-name="Контур 79" d="M39.8,43.71H33.56a.78.78,0,0,0-.78.78v6.24a.78.78,0,0,0,.78.78H39.8a.78.78,0,0,0,.78-.78V44.49a.78.78,0,0,0-.78-.78ZM39,50H34.34V45.27H39Z" fill="#141414"/>
        <path id="Контур_80" data-name="Контур 80" d="M49.17,43.71H42.93a.78.78,0,0,0-.78.78V60.1a.78.78,0,0,0,.78.78h6.24A.78.78,0,0,0,50,60.1V44.49a.78.78,0,0,0-.83-.78Zm-.78,15.61H43.71v-14h4.68Z" fill="#141414"/>
        <path id="Контур_81" data-name="Контур 81" d="M21.07,34.34H14.83a.78.78,0,0,0-.78.78v6.24a.78.78,0,0,0,.78.78h6.24a.78.78,0,0,0,.78-.78V35.12A.78.78,0,0,0,21.07,34.34Zm-.78,6.24H15.61V35.9h4.68Z" fill="#141414"/>
        <path id="Контур_82" data-name="Контур 82" d="M30.44,34.34H24.2a.78.78,0,0,0-.78.78v6.24a.78.78,0,0,0,.78.78h6.24a.78.78,0,0,0,.78-.78V35.12A.78.78,0,0,0,30.44,34.34Zm-.78,6.24H25V35.9h4.68Z" fill="#141414"/>
        <path id="Контур_83" data-name="Контур 83" d="M39.8,34.34H33.56a.78.78,0,0,0-.78.78v6.24a.78.78,0,0,0,.78.78H39.8a.78.78,0,0,0,.78-.78V35.12A.78.78,0,0,0,39.8,34.34ZM39,40.58H34.34V35.9H39Z" fill="#141414"/>
        <path id="Контур_84" data-name="Контур 84" d="M49.17,34.34H42.93a.78.78,0,0,0-.78.78v6.24a.78.78,0,0,0,.78.78h6.24a.78.78,0,0,0,.78-.78V35.12A.78.78,0,0,0,49.17,34.34Zm-.78,6.24H43.71V35.9h4.68Z" fill="#141414"/>
        <path id="Контур_85" data-name="Контур 85" d="M32.78,25.75v3.12a.78.78,0,0,0,.78.78H49.17a.78.78,0,0,0,.78-.78V25.75a.78.78,0,0,0-.78-.78H33.56a.78.78,0,0,0-.78.78Zm1.56.78h14V28.1h-14Z" fill="#141414"/>
        <path id="Контур_86" data-name="Контур 86" d="M14.83,26.53H27.32a.78.78,0,1,0,0-1.56H14.83a.78.78,0,0,0,0,1.56Z" fill="#141414"/>
        <path id="Контур_87" data-name="Контур 87" d="M14.83,29.66H27.32a.78.78,0,1,0,0-1.56H14.83a.78.78,0,1,0,0,1.56Z" fill="#141414"/>
      </g>
    </g>
  </g>
</svg>
