<svg id="Компонент_21_2" data-name="Компонент 21 – 2" xmlns="http://www.w3.org/2000/svg" width="169.807" height="169.111" viewBox="0 0 169.807 169.111">
  <g id="Сгруппировать_76" data-name="Сгруппировать 76" transform="translate(0)" opacity="0">
    <path id="homesandservice-kreis" d="M159.144,46.133s2.721,5.183,2.851,5.7a15.871,15.871,0,0,0,.907,2.2c4.017,9.2,5.183,16.976,5.831,25.917a99.627,99.627,0,0,1,0,12.44,72.729,72.729,0,0,1-2.2,11.792,85.034,85.034,0,0,1-12.311,26.436A98.569,98.569,0,0,1,133.1,152.913a20.657,20.657,0,0,1-2.721,1.944,81.36,81.36,0,0,1-39.783,12.181c-3.369.13-6.739,0-10.108-.13-2.851-.259-5.831-.648-8.682-1.166A82.671,82.671,0,0,1,7.527,106,68.851,68.851,0,0,1,5.454,94.728c-.259-2.2-.389-4.276-.518-6.479V80.733c.13-2.073.389-4.147.518-6.22A69.63,69.63,0,0,1,7.4,64.146,83.064,83.064,0,0,1,61.954,6.35,83.421,83.421,0,0,1,80.614,2.721a70.965,70.965,0,0,1,10.5-.13c2.98.13,5.961.518,8.941.907A82.339,82.339,0,0,1,150.98,32.785c1.425,1.814,2.851,3.758,4.147,5.572.259.259.389.518.778.518-.13-.259-.389-.518-.518-.778a85.567,85.567,0,0,0-11.144-13.477,84.587,84.587,0,0,0-21.9-15.68A83.449,83.449,0,0,0,87.871,0H79.577A73.894,73.894,0,0,0,68.822,1.3,84.6,84.6,0,0,0,22.689,26.954,83,83,0,0,0,8.434,48.077,86.178,86.178,0,0,0,.4,76.586,69.356,69.356,0,0,0,.011,86.953,52.746,52.746,0,0,0,.4,93.432c.259,2.851.778,5.7,1.3,8.553a82.487,82.487,0,0,0,13.347,30.971A83.691,83.691,0,0,0,31.371,150.45a84.69,84.69,0,0,0,30.971,15.81,80.708,80.708,0,0,0,11.144,2.2c2.333.259,4.795.389,7.257.648H88.26a82.328,82.328,0,0,0,39.265-11.533,85.616,85.616,0,0,0,24.751-22.03,95.542,95.542,0,0,0,6.091-8.682A77.154,77.154,0,0,0,168.6,100.689c.518-2.851.907-5.831,1.166-8.812V81.251a39.547,39.547,0,0,0-.648-6.739,73.992,73.992,0,0,0-2.981-14.125,54.027,54.027,0,0,0-2.462-6.35A48.354,48.354,0,0,0,159.4,46" transform="translate(0.038)" fill="#141414"/>
    <path id="Контур_39" data-name="Контур 39" d="M81.629,0A81.629,81.629,0,1,1,0,81.629,81.629,81.629,0,0,1,81.629,0Z" transform="translate(3.274 5.852)" fill="#f6a2a2"/>
  </g>
  <g id="Сгруппировать_77" data-name="Сгруппировать 77" transform="translate(17 17)">
    <path id="homesandservice-kreis-2" data-name="homesandservice-kreis" d="M127.691,37.017s2.184,4.159,2.288,4.575a12.735,12.735,0,0,0,.728,1.768c3.223,7.383,4.159,13.622,4.679,20.8a79.942,79.942,0,0,1,0,9.982,58.358,58.358,0,0,1-1.768,9.462,68.232,68.232,0,0,1-9.878,21.212A79.092,79.092,0,0,1,106.791,122.7a16.575,16.575,0,0,1-2.184,1.56,65.284,65.284,0,0,1-31.922,9.774c-2.7.1-5.407,0-8.111-.1-2.288-.208-4.679-.52-6.967-.936A66.336,66.336,0,0,1,6.032,85.057,55.246,55.246,0,0,1,4.369,76.01c-.208-1.768-.312-3.431-.416-5.2V64.78c.1-1.664.312-3.327.416-4.991a55.872,55.872,0,0,1,1.56-8.319A66.651,66.651,0,0,1,49.7,5.1,66.938,66.938,0,0,1,64.678,2.184a56.943,56.943,0,0,1,8.423-.1c2.392.1,4.783.416,7.175.728a66.07,66.07,0,0,1,40.865,23.5c1.144,1.456,2.288,3.015,3.327,4.471.208.208.312.416.624.416-.1-.208-.312-.416-.416-.624a68.659,68.659,0,0,0-8.942-10.814A67.873,67.873,0,0,0,98.16,7.175,66.96,66.96,0,0,0,70.5,0H63.846a59.293,59.293,0,0,0-8.63,1.04A67.887,67.887,0,0,0,18.2,21.628,66.6,66.6,0,0,0,6.76,38.577,69.15,69.15,0,0,0,.313,61.453,55.652,55.652,0,0,0,0,69.772a42.324,42.324,0,0,0,.312,5.2c.208,2.288.624,4.575,1.04,6.863a66.188,66.188,0,0,0,10.71,24.852,67.154,67.154,0,0,0,13.1,14.038,67.956,67.956,0,0,0,24.852,12.686,64.762,64.762,0,0,0,8.942,1.768c1.872.208,3.847.312,5.823.52h6.031a66.06,66.06,0,0,0,31.506-9.254,68.7,68.7,0,0,0,19.86-17.677,76.665,76.665,0,0,0,4.887-6.967,61.909,61.909,0,0,0,8.215-21c.416-2.288.728-4.679.936-7.071V65.2a31.732,31.732,0,0,0-.52-5.407,59.371,59.371,0,0,0-2.392-11.334,43.351,43.351,0,0,0-1.976-5.1,38.8,38.8,0,0,0-3.431-6.447" transform="translate(0.038)" fill="#f6a2a2"/>
    <path id="homesandservice-kreis-3" data-name="homesandservice-kreis" d="M122.8,35.6s2.1,4,2.2,4.4a12.248,12.248,0,0,0,.7,1.7c3.1,7.1,4,13.1,4.5,20a76.876,76.876,0,0,1,0,9.6,56.124,56.124,0,0,1-1.7,9.1,65.62,65.62,0,0,1-9.5,20.4A76.064,76.064,0,0,1,102.7,118a15.94,15.94,0,0,1-2.1,1.5,62.784,62.784,0,0,1-30.7,9.4c-2.6.1-5.2,0-7.8-.1-2.2-.2-4.5-.5-6.7-.9A63.8,63.8,0,0,1,5.8,81.8a53.131,53.131,0,0,1-1.6-8.7c-.2-1.7-.3-3.3-.4-5V62.3c.1-1.6.3-3.2.4-4.8a53.732,53.732,0,0,1,1.5-8A64.1,64.1,0,0,1,47.8,4.9,64.375,64.375,0,0,1,62.2,2.1,54.762,54.762,0,0,1,70.3,2c2.3.1,4.6.4,6.9.7a63.54,63.54,0,0,1,39.3,22.6c1.1,1.4,2.2,2.9,3.2,4.3.2.2.3.4.6.4-.1-.2-.3-.4-.4-.6A66.029,66.029,0,0,0,111.3,19,65.274,65.274,0,0,0,94.4,6.9,64.4,64.4,0,0,0,67.8,0H61.4a57.023,57.023,0,0,0-8.3,1A65.287,65.287,0,0,0,17.5,20.8a64.049,64.049,0,0,0-11,16.3,66.5,66.5,0,0,0-6.2,22,53.521,53.521,0,0,0-.3,8,40.7,40.7,0,0,0,.3,5c.2,2.2.6,4.4,1,6.6a63.654,63.654,0,0,0,10.3,23.9,64.583,64.583,0,0,0,12.6,13.5,65.354,65.354,0,0,0,23.9,12.2,62.282,62.282,0,0,0,8.6,1.7c1.8.2,3.7.3,5.6.5h5.8a63.531,63.531,0,0,0,30.3-8.9,66.069,66.069,0,0,0,19.1-17,73.73,73.73,0,0,0,4.7-6.7,59.538,59.538,0,0,0,7.9-20.2c.4-2.2.7-4.5.9-6.8V62.7a30.517,30.517,0,0,0-.5-5.2,57.1,57.1,0,0,0-2.3-10.9,41.687,41.687,0,0,0-1.9-4.9,37.314,37.314,0,0,0-3.3-6.2" transform="translate(2.165 5.196)" fill="#141414"/>
    <g id="Layer_2" data-name="Layer 2" transform="translate(36 46)">
      <g id="Layer_1" data-name="Layer 1">
        <path id="Контур_126" data-name="Контур 126" d="M60.1,9.37H57.76V3.9A3.91,3.91,0,0,0,53.85,0H3.9A3.91,3.91,0,0,0,0,3.9V19.51a3.89,3.89,0,0,0,1.56,3.12h0V35.12A3.9,3.9,0,0,0,7.8,38.24V39.8A3.9,3.9,0,0,0,14,42.93v1.56a3.9,3.9,0,0,0,7.8,0V32a3.9,3.9,0,0,0,6.24-3.12V23.41H53.85a3.91,3.91,0,0,0,3.9-3.9V10.93H60.1a2.35,2.35,0,0,1,2.34,2.34V23.2a2.35,2.35,0,0,1-1.88,2.3L31.85,31.23a.78.78,0,0,0-.63.77v2.34h-.95A3.9,3.9,0,0,0,26.37,38L25.16,59.88A3.9,3.9,0,0,0,29.06,64h5.88a3.9,3.9,0,0,0,3.9-4.12L37.63,38a3.91,3.91,0,0,0-3.9-3.69h-.95v-1.7L60.86,27A3.91,3.91,0,0,0,64,23.2V13.27A3.91,3.91,0,0,0,60.1,9.37ZM26.54,28.88a2.34,2.34,0,0,1-4.68,0,.78.78,0,0,0-1.56,0V44.49a2.34,2.34,0,0,1-4.68,0V39.8a.78.78,0,0,0-1.56,0,2.34,2.34,0,1,1-4.68,0V35.12a.78.78,0,0,0-1.56,0,2.34,2.34,0,1,1-4.68,0V23.34a3.91,3.91,0,0,0,.78.08H26.54ZM56.2,19.51a2.35,2.35,0,0,1-2.34,2.34H3.9a2.34,2.34,0,0,1-2.34-2.34V3.9A2.34,2.34,0,0,1,3.9,1.56h50A2.35,2.35,0,0,1,56.2,3.9ZM33.73,35.9a2.34,2.34,0,0,1,2.34,2.21L37.28,60a2.34,2.34,0,0,1-2.34,2.47H29.06A2.34,2.34,0,0,1,26.72,60l1.21-21.85a2.34,2.34,0,0,1,2.34-2.21Z" fill="#141414"/>
        <path id="Контур_127" data-name="Контур 127" d="M6.33,3.15a.78.78,0,0,0-1,.54l-2.22,7.8a.78.78,0,1,0,1.5.43l2.22-7.8a.78.78,0,0,0-.5-.97Z" fill="#141414"/>
        <path id="Контур_128" data-name="Контур 128" d="M54.07,11a.78.78,0,0,0-1,.54l-2.22,7.8a.78.78,0,0,0,1.5.43l2.22-7.8a.78.78,0,0,0-.5-.97Z" fill="#141414"/>
        <path id="Контур_129" data-name="Контур 129" d="M12.58,3.15a.77.77,0,0,0-1,.54L7.18,19.3a.78.78,0,0,0,1.5.43L13.11,4.12a.78.78,0,0,0-.53-.97Z" fill="#141414"/>
        <path id="Контур_130" data-name="Контур 130" d="M18.82,3.15a.77.77,0,0,0-1,.54L13.42,19.3a.78.78,0,1,0,1.5.43L19.36,4.12a.78.78,0,0,0-.54-.97Z" fill="#141414"/>
        <path id="Контур_131" data-name="Контур 131" d="M25.06,3.15a.77.77,0,0,0-1,.54L19.67,19.3a.78.78,0,1,0,1.5.43L25.6,4.12a.78.78,0,0,0-.54-.97Z" fill="#141414"/>
        <path id="Контур_132" data-name="Контур 132" d="M31.31,3.15a.77.77,0,0,0-1,.54L25.91,19.3a.78.78,0,1,0,1.5.43L31.85,4.12a.78.78,0,0,0-.54-.97Z" fill="#141414"/>
        <path id="Контур_133" data-name="Контур 133" d="M37.55,3.15a.77.77,0,0,0-1,.54L32.15,19.3a.78.78,0,0,0,1.5.43L38.09,4.12a.78.78,0,0,0-.54-.97Z" fill="#141414"/>
        <path id="Контур_134" data-name="Контур 134" d="M43.8,3.15a.77.77,0,0,0-1,.54L38.4,19.3a.78.78,0,0,0,1.5.43L44.33,4.12a.78.78,0,0,0-.53-.97Z" fill="#141414"/>
        <path id="Контур_135" data-name="Контур 135" d="M50,3.15a.77.77,0,0,0-1,.54L44.64,19.3a.78.78,0,1,0,1.5.43L50.58,4.12A.78.78,0,0,0,50,3.15Z" fill="#141414"/>
      </g>
    </g>
  </g>
</svg>
