<svg xmlns="http://www.w3.org/2000/svg" width="30.771" height="30.749" viewBox="0 0 30.771 30.749">
  <g id="rocket-outline" transform="translate(-2.623 -2.617)">
    <path id="Контур_180" data-name="Контур 180" d="M32.471,3.784a.309.309,0,0,0-.232-.238c-3.824-.935-12.656,2.4-17.447,7.184a20.735,20.735,0,0,0-2.327,2.748,8.65,8.65,0,0,0-4.21.527c-3.55,1.561-4.583,5.638-4.871,7.388a.633.633,0,0,0,.689.731l5.7-.626a12.677,12.677,0,0,0,.077,1.287,1.276,1.276,0,0,0,.373.78l2.207,2.207a1.276,1.276,0,0,0,.78.373,12.65,12.65,0,0,0,1.279.077l-.625,5.7a.633.633,0,0,0,.731.688c1.751-.281,5.836-1.314,7.388-4.864a8.7,8.7,0,0,0,.534-4.2,20.666,20.666,0,0,0,2.756-2.327c4.808-4.781,8.119-13.42,7.2-17.434ZM21,15.024a3,3,0,1,1,2.122.88A3,3,0,0,1,21,15.024Z" fill="none" stroke="#000" stroke-linecap="round" stroke-linejoin="round" stroke-width="1.5"/>
    <path id="Контур_181" data-name="Контур 181" d="M7.709,24.75a3.168,3.168,0,0,0-1.853.9C4.617,26.9,4.5,31.5,4.5,31.5s4.607-.117,5.846-1.358a3.145,3.145,0,0,0,.9-1.854" fill="none" stroke="#000" stroke-linecap="round" stroke-linejoin="round" stroke-width="1.5"/>
  </g>
</svg>
