<svg xmlns="http://www.w3.org/2000/svg" width="105.488" height="17.646" viewBox="0 0 105.488 17.646">
  <g id="Сгруппировать_170" data-name="Сгруппировать 170" transform="translate(0 -2.006)">
    <path id="star" d="M18.415,6.827a.8.8,0,0,1-.288.533L14.11,11.29l.952,5.551a1.655,1.655,0,0,1,.011.222.656.656,0,0,1-.116.394.391.391,0,0,1-.338.161.891.891,0,0,1-.442-.133l-4.969-2.62-4.969,2.62a.937.937,0,0,1-.442.133.4.4,0,0,1-.348-.161.659.659,0,0,1-.117-.394,1.82,1.82,0,0,1,.022-.222l.952-5.551L.277,7.36A.847.847,0,0,1,0,6.827q0-.411.62-.511l5.556-.81L8.665.455Q8.876,0,9.208,0T9.75.455l2.49,5.051,5.556.81q.62.1.62.511Z" transform="translate(0 2.006)" fill="#ffc453"/>
    <path id="star-2" data-name="star" d="M18.415,6.827a.8.8,0,0,1-.288.533L14.11,11.29l.952,5.551a1.655,1.655,0,0,1,.011.222.656.656,0,0,1-.116.394.391.391,0,0,1-.338.161.891.891,0,0,1-.442-.133l-4.969-2.62-4.969,2.62a.937.937,0,0,1-.442.133.4.4,0,0,1-.348-.161.659.659,0,0,1-.117-.394,1.82,1.82,0,0,1,.022-.222l.952-5.551L.277,7.36A.847.847,0,0,1,0,6.827q0-.411.62-.511l5.556-.81L8.665.455Q8.876,0,9.208,0T9.75.455l2.49,5.051,5.556.81q.62.1.62.511Z" transform="translate(21.681 2.006)" fill="#ffc453"/>
    <path id="star-3" data-name="star" d="M18.415,6.827a.8.8,0,0,1-.288.533L14.11,11.29l.952,5.551a1.655,1.655,0,0,1,.011.222.656.656,0,0,1-.116.394.391.391,0,0,1-.338.161.891.891,0,0,1-.442-.133l-4.969-2.62-4.969,2.62a.937.937,0,0,1-.442.133.4.4,0,0,1-.348-.161.659.659,0,0,1-.117-.394,1.82,1.82,0,0,1,.022-.222l.952-5.551L.277,7.36A.847.847,0,0,1,0,6.827q0-.411.62-.511l5.556-.81L8.665.455Q8.876,0,9.208,0T9.75.455l2.49,5.051,5.556.81q.62.1.62.511Z" transform="translate(43.363 2.006)" fill="#ffc453"/>
    <path id="star-4" data-name="star" d="M18.415,6.827a.8.8,0,0,1-.288.533L14.11,11.29l.952,5.551a1.655,1.655,0,0,1,.011.222.656.656,0,0,1-.116.394.391.391,0,0,1-.338.161.891.891,0,0,1-.442-.133l-4.969-2.62-4.969,2.62a.937.937,0,0,1-.442.133.4.4,0,0,1-.348-.161.659.659,0,0,1-.117-.394,1.82,1.82,0,0,1,.022-.222l.952-5.551L.277,7.36A.847.847,0,0,1,0,6.827q0-.411.62-.511l5.556-.81L8.665.455Q8.876,0,9.208,0T9.75.455l2.49,5.051,5.556.81q.62.1.62.511Z" transform="translate(65.044 2.006)" fill="#ffc453"/>
    <g id="star-half" transform="translate(86.726 2.006)">
      <path id="Контур_28" data-name="Контур 28" d="M6.28,6.559l2.561-5.09a.6.6,0,0,1,1.087,0l2.561,5.09,5.743.819a.631.631,0,0,1,.532.594.648.648,0,0,1-.2.523l-4.131,3.948.973,5.564a.623.623,0,0,1-.875.7L9.383,16.049,4.237,18.7a.607.607,0,0,1-.171.059.633.633,0,0,1-.7-.755l.973-5.564L.2,8.495A.648.648,0,0,1,0,8.02a.7.7,0,0,1,.1-.355.6.6,0,0,1,.434-.288L6.28,6.559Zm3.1,8.126a.578.578,0,0,1,.272.066l4.322,2.228-.814-4.655a.665.665,0,0,1,.191-.594l3.407-3.258-4.752-.678a.616.616,0,0,1-.461-.339l-2.164-4.3,0,0V14.683Z" transform="translate(-0.004 -1.125)" fill="#ffc453" fill-rule="evenodd"/>
    </g>
  </g>
</svg>
