<svg id="Сгруппировать_84" data-name="Сгруппировать 84" xmlns="http://www.w3.org/2000/svg" width="64.255" height="63.696" viewBox="0 0 64.255 63.696">
  <path id="homesandservice-kreis" d="M60.2,17.376s1.03,1.952,1.079,2.148a5.962,5.962,0,0,0,.343.83,27.529,27.529,0,0,1,2.207,9.762,37.352,37.352,0,0,1,0,4.686,27.28,27.28,0,0,1-.834,4.442A31.961,31.961,0,0,1,58.333,49.2a37.2,37.2,0,0,1-7.993,8.4,7.816,7.816,0,0,1-1.03.732,30.889,30.889,0,0,1-15.054,4.588c-1.275.049-2.55,0-3.825-.049-1.079-.1-2.207-.244-3.285-.439A31.082,31.082,0,0,1,8.415,51.054a30.961,30.961,0,0,1-5.59-11.128,25.825,25.825,0,0,1-.785-4.246c-.1-.83-.147-1.611-.2-2.44V30.408c.049-.781.147-1.562.2-2.343a26.118,26.118,0,0,1,.736-3.9A31.36,31.36,0,0,1,23.42,2.392a31.7,31.7,0,0,1,7.061-1.367A26.977,26.977,0,0,1,34.453.976c1.128.049,2.256.2,3.383.342A31.727,31.727,0,0,1,43.819,2.88a31.4,31.4,0,0,1,13.289,9.469c.539.683,1.079,1.415,1.569,2.1.1.1.147.2.294.2-.049-.1-.147-.2-.2-.293A32.563,32.563,0,0,0,46.27,3.368,31.693,31.693,0,0,0,33.227,0H30.089a28.085,28.085,0,0,0-4.07.488A32.065,32.065,0,0,0,8.562,10.152a31.254,31.254,0,0,0-5.394,7.956A32.344,32.344,0,0,0,.128,28.846a26,26,0,0,0-.147,3.9,19.776,19.776,0,0,0,.147,2.44c.1,1.074.294,2.148.49,3.221A31,31,0,0,0,5.669,50.078a31.581,31.581,0,0,0,6.178,6.589,32.1,32.1,0,0,0,11.719,5.955,30.665,30.665,0,0,0,4.217.83c.883.1,1.814.146,2.746.244h2.844a31.259,31.259,0,0,0,14.858-4.344,32.348,32.348,0,0,0,9.366-8.3,35.985,35.985,0,0,0,2.3-3.27,28.981,28.981,0,0,0,3.874-9.859c.2-1.074.343-2.2.441-3.319v-4a14.828,14.828,0,0,0-.245-2.538,27.757,27.757,0,0,0-1.128-5.32,20.291,20.291,0,0,0-.932-2.392,18.183,18.183,0,0,0-1.618-3.026" transform="translate(0.038)" fill="#f6a2a2"/>
  <path id="homesandservice-kreis-2" data-name="homesandservice-kreis" d="M55.306,15.959s.946,1.793.991,1.972a5.475,5.475,0,0,0,.315.762,25.275,25.275,0,0,1,2.027,8.966,34.289,34.289,0,0,1,0,4.3,25.046,25.046,0,0,1-.766,4.079,29.349,29.349,0,0,1-4.28,9.145A34.171,34.171,0,0,1,46.25,52.9a7.181,7.181,0,0,1-.946.672,28.389,28.389,0,0,1-13.832,4.214c-1.171.045-2.343,0-3.514-.045-.991-.09-2.027-.224-3.019-.4A28.561,28.561,0,0,1,7.729,46.89,28.431,28.431,0,0,1,2.593,36.669a23.71,23.71,0,0,1-.721-3.9c-.09-.762-.135-1.479-.18-2.241v-2.6c.045-.717.135-1.434.18-2.152a23.979,23.979,0,0,1,.676-3.586A28.808,28.808,0,0,1,21.515,2.2,29.133,29.133,0,0,1,28,.941,24.8,24.8,0,0,1,31.652.9c1.036.045,2.072.179,3.109.314a29.161,29.161,0,0,1,5.5,1.434,28.853,28.853,0,0,1,12.21,8.7c.5.628.991,1.3,1.442,1.928.09.09.135.179.27.179-.045-.09-.135-.179-.18-.269A29.915,29.915,0,0,0,42.51,3.093,29.129,29.129,0,0,0,30.526,0H27.642A25.815,25.815,0,0,0,23.9.448,29.466,29.466,0,0,0,7.864,9.324a28.7,28.7,0,0,0-4.956,7.307A29.7,29.7,0,0,0,.115,26.493a23.872,23.872,0,0,0-.135,3.586,18.156,18.156,0,0,0,.135,2.241c.09.986.27,1.972.451,2.959A28.461,28.461,0,0,0,5.206,45.993a29.01,29.01,0,0,0,5.677,6.052A29.5,29.5,0,0,0,21.65,57.514a28.187,28.187,0,0,0,3.875.762c.811.09,1.667.134,2.523.224h2.613a28.73,28.73,0,0,0,13.651-3.99,29.718,29.718,0,0,0,8.605-7.621,33.051,33.051,0,0,0,2.118-3,26.611,26.611,0,0,0,3.559-9.055c.18-.986.315-2.017.405-3.048V28.107a13.614,13.614,0,0,0-.225-2.331,25.485,25.485,0,0,0-1.036-4.886,18.633,18.633,0,0,0-.856-2.2A16.7,16.7,0,0,0,55.4,15.914" transform="translate(2.037 5)" fill="#141414"/>
</svg>
