<svg xmlns="http://www.w3.org/2000/svg" width="55.689" height="64.116" viewBox="0 0 55.689 64.116">
  <g id="Arrow36" transform="translate(-5.771 -28.631) rotate(30)">
    <path id="Контур_284" data-name="Контур 284" d="M75.194,12.775l-14.116-4.6a4.273,4.273,0,0,0-2.616.28,4.544,4.544,0,0,0-.924.49.959.959,0,0,0-.49.77v.032a53.485,53.485,0,0,1-2.185,11.566c-.233.709-.463,1.417-.7,2.128-.1.311.137.49.4.6A3.085,3.085,0,0,0,56,24.076a5.394,5.394,0,0,0,1.692-.544c.324-.184.753-.412.885-.787q.36-1.03.679-2.074,1.1-3.347,2.195-6.694c.049.071.1.142.154.216a25.9,25.9,0,0,1,4.168,12.552,30.354,30.354,0,0,1,0,4.09,38.572,38.572,0,0,1-4.48,14.8q-.853,1.618-1.837,3.166a43.621,43.621,0,0,1-5.98,7.385c-.282.28-.571.557-.861.826-.14.132-.282.26-.424.39l-.213.191h0c-.613.532-1.226,1.049-1.881,1.545s-1.273.951-1.93,1.4q-.49.333-1,.652l-.2.128-.525.311q-1.03.6-2.1,1.133-.519.261-1.045.49c-.333.145,3.665,1.033,9.141-2.915A44.136,44.136,0,0,0,64.6,46.923a38.584,38.584,0,0,0,5.713-19.072A26.455,26.455,0,0,0,65.97,12.819l5.64,1.837a3.256,3.256,0,0,0,1.434.037,5.262,5.262,0,0,0,1.692-.544c.294-.167.807-.422.885-.787A.516.516,0,0,0,75.194,12.775Z" transform="translate(0)" fill=""/>
  </g>
</svg>
