<svg xmlns="http://www.w3.org/2000/svg" width="27.303" height="20.541" viewBox="0 0 27.303 20.541">
  <path id="envelope" d="M13.666,12.009,1.694,0H25.638ZM.2,19.605a1.719,1.719,0,0,1-.187-.776V1.712A1.719,1.719,0,0,1,.2.936l9.332,9.335Zm12.425-6.2a1.2,1.2,0,0,0,.413.214,1.491,1.491,0,0,0,.44.08h.187a1.4,1.4,0,0,0,1.04-.294L16.6,11.475l9.038,9.067H1.694l9.038-9.067ZM27.13.937a1.719,1.719,0,0,1,.187.776V18.83a1.719,1.719,0,0,1-.187.776L17.8,10.271Z" transform="translate(-0.014)" fill=""/>
</svg>
