<svg xmlns="http://www.w3.org/2000/svg" width="20.322" height="20.383" viewBox="0 0 20.322 20.383">
  <path id="ios-telephone" d="M25.014,20.421c-.843-.869-3.239-2.5-4.809-2.5a1.7,1.7,0,0,0-.941.249,5.152,5.152,0,0,1-1.674.875c-.162,0-.335-.145-.716-.475l-.063-.058a19.869,19.869,0,0,1-1.691-1.587l-.1-.11c-.075-.075-.139-.145-.2-.208-.358-.371-.617-.637-1.535-1.679l-.04-.046c-.438-.5-.727-.822-.745-1.06s.185-.608.7-1.309a2.872,2.872,0,0,0,.075-3.1,14.09,14.09,0,0,0-1.859-2.675l-.057-.069A2.49,2.49,0,0,0,9.394,5.632,3.455,3.455,0,0,0,7.547,6.3c-.029.017-.057.04-.086.058A3.718,3.718,0,0,0,5.856,8.284c-.329,1.071-.548,2.461,1.028,5.351a25.81,25.81,0,0,0,4.561,6.2,27.576,27.576,0,0,0,4.5,3.845,10.451,10.451,0,0,0,5.38,2.334,3.921,3.921,0,0,0,3.712-1.731c1.5-1.818.878-2.93-.023-3.862Z" transform="translate(-5.621 -5.632)" fill=""/>
</svg>
