<svg xmlns="http://www.w3.org/2000/svg" width="20.216" height="20.216" viewBox="0 0 20.216 20.216">
  <path id="linkedin-rect" d="M3.968.009A3.974,3.974,0,0,0,.007,3.971V16.265a3.973,3.973,0,0,0,3.962,3.961H16.263a3.972,3.972,0,0,0,3.961-3.961V3.971A3.973,3.973,0,0,0,16.263.009Zm1,3.336a1.592,1.592,0,1,1-.02,3.174h-.02a1.591,1.591,0,1,1,.04-3.174Zm9,4.213c2.009,0,3.515,1.313,3.515,4.135v5.268H14.429V12.046c0-1.235-.442-2.078-1.547-2.078a1.672,1.672,0,0,0-1.567,1.116,2.085,2.085,0,0,0-.1.745v5.13H8.161s.04-8.325,0-9.187h3.053v1.3a3.031,3.031,0,0,1,2.752-1.516ZM3.418,7.774H6.471v9.186H3.418V7.774Z" transform="translate(-0.007 -0.009)" fill=""/>
</svg>
