<svg id="Компонент_19_1" data-name="Компонент 19 – 1" xmlns="http://www.w3.org/2000/svg" width="29.969" height="29.968" viewBox="0 0 29.969 29.968">
  <path id="whatsapp" d="M15.921,28.1A13.924,13.924,0,0,1,9.1,26.34L0,29.968l3.629-9.1a13.924,13.924,0,0,1-1.756-6.819A13.692,13.692,0,0,1,2.985,8.589a13.9,13.9,0,0,1,7.477-7.477,13.951,13.951,0,0,1,10.917,0A13.9,13.9,0,0,1,28.857,8.59a13.951,13.951,0,0,1,0,10.917,13.9,13.9,0,0,1-7.478,7.478A13.672,13.672,0,0,1,15.921,28.1ZM20.6,16.857H18.73l-1.054.937a8.191,8.191,0,0,1-3.234-2.268,8.184,8.184,0,0,1-2.268-3.233l.937-1.054V9.365a1.715,1.715,0,0,0-.351-.995,2.225,2.225,0,0,0-.776-.717q-.425-.22-.6-.044L10.009,8.985q-1.141,1.141-.336,3.555a12.158,12.158,0,0,0,3.073,4.683A12.137,12.137,0,0,0,17.428,20.3q2.415.8,3.555-.335l1.375-1.375q.176-.176-.044-.6a2.225,2.225,0,0,0-.717-.776A1.715,1.715,0,0,0,20.6,16.857Z" fill="#141414" opacity="0"/>
  <path id="whatsapp-2" data-name="whatsapp" d="M14.647,13.255a6.789,6.789,0,0,1,1.45.654,6.443,6.443,0,0,1,1.331.788.631.631,0,0,1,.03.223,3.132,3.132,0,0,1-.253,1.13,2,2,0,0,1-1.055.974,3.517,3.517,0,0,1-1.517.395,8.034,8.034,0,0,1-2.825-.922,8.478,8.478,0,0,1-2.528-1.755,19.611,19.611,0,0,1-2.2-2.751A5.2,5.2,0,0,1,6.023,9.106V8.987a3.289,3.289,0,0,1,1.1-2.35A1.125,1.125,0,0,1,7.9,6.31a2.35,2.35,0,0,1,.268.022,2.391,2.391,0,0,0,.282.022.611.611,0,0,1,.394.1,1.072,1.072,0,0,1,.231.409q.119.3.49,1.309a8.836,8.836,0,0,1,.372,1.116,1.511,1.511,0,0,1-.513.855q-.513.543-.514.691a.424.424,0,0,0,.074.223A6.7,6.7,0,0,0,10.5,13.091a9.49,9.49,0,0,0,2.245,1.5.659.659,0,0,0,.327.1q.223,0,.8-.721t.773-.721Zm-3.018,7.881a9.091,9.091,0,0,0,3.621-.744,9.2,9.2,0,0,0,4.974-4.974,9.19,9.19,0,0,0,0-7.242A9.2,9.2,0,0,0,15.25,3.2a9.19,9.19,0,0,0-7.242,0A9.2,9.2,0,0,0,3.034,8.176,9.247,9.247,0,0,0,4.075,17.27L2.9,20.734,6.5,19.59A9.144,9.144,0,0,0,11.629,21.136Zm0-20.551a10.9,10.9,0,0,1,4.349.892,11.084,11.084,0,0,1,5.971,5.971,11.048,11.048,0,0,1,0,8.7,11.084,11.084,0,0,1-5.971,5.971,10.889,10.889,0,0,1-4.349.892,11.041,11.041,0,0,1-5.428-1.4L0,23.6l2.022-6.022A11.148,11.148,0,0,1,1.309,7.448,11.084,11.084,0,0,1,7.279,1.477,10.877,10.877,0,0,1,11.629.585Z" transform="translate(4 2.415)" fill=""/>
</svg>
