<svg xmlns="http://www.w3.org/2000/svg" width="35.974" height="35.974" viewBox="0 0 35.974 35.974">
  <path id="xing-square" d="M16.044,14.919q0-.023-2.951-5.2a1.424,1.424,0,0,0-1.218-.8H7.565a.7.7,0,0,0-.609.258.7.7,0,0,0,.023.68L9.907,14.92v.023l-4.591,8.1a.562.562,0,0,0,0,.656.618.618,0,0,0,.563.3h4.333a1.324,1.324,0,0,0,1.171-.843ZM30.658,3.28A.6.6,0,0,0,30.1,3h-4.38a1.31,1.31,0,0,0-1.147.819L14.942,20.891q.023.047,6.137,11.265a1.386,1.386,0,0,0,1.218.819h4.31a.62.62,0,0,0,.586-.281.591.591,0,0,0-.023-.656L21.079,20.891v-.023L30.658,3.935a.616.616,0,0,0,0-.656Zm5.316,3.467V29.23a6.754,6.754,0,0,1-6.745,6.744H6.745A6.5,6.5,0,0,1,1.979,34,6.492,6.492,0,0,1,0,29.229V6.745A6.5,6.5,0,0,1,1.979,1.979,6.492,6.492,0,0,1,6.745,0H29.229A6.5,6.5,0,0,1,34,1.979a6.492,6.492,0,0,1,1.979,4.767Z" fill=""/>
</svg>
