<svg id="Компонент_19_1" xmlns="http://www.w3.org/2000/svg" width="29.969" height="29.968" viewBox="0 0 29.969 29.968">
  <path id="whatsapp-2"  d="M15.921,28.1A13.924,13.924,0,0,1,9.1,26.34L0,29.968l3.629-9.1a13.924,13.924,0,0,1-1.756-6.819A13.692,13.692,0,0,1,2.985,8.589a13.9,13.9,0,0,1,7.477-7.477,13.951,13.951,0,0,1,10.917,0A13.9,13.9,0,0,1,28.857,8.59a13.951,13.951,0,0,1,0,10.917,13.9,13.9,0,0,1-7.478,7.478A13.672,13.672,0,0,1,15.921,28.1ZM20.6,16.857H18.73l-1.054.937a8.191,8.191,0,0,1-3.234-2.268,8.184,8.184,0,0,1-2.268-3.233l.937-1.054V9.365a1.715,1.715,0,0,0-.351-.995,2.225,2.225,0,0,0-.776-.717q-.425-.22-.6-.044L10.009,8.985q-1.141,1.141-.336,3.555a12.158,12.158,0,0,0,3.073,4.683A12.137,12.137,0,0,0,17.428,20.3q2.415.8,3.555-.335l1.375-1.375q.176-.176-.044-.6a2.225,2.225,0,0,0-.717-.776A1.715,1.715,0,0,0,20.6,16.857Z" fill=""/>
</svg>
