<svg xmlns="http://www.w3.org/2000/svg" width="20.22" height="20.22" viewBox="0 0 20.22 20.22">
  <g id="bxl-instagram-alt" transform="translate(-4.495 -4.47)">
    <path id="Контур_40" data-name="Контур 40" d="M24.651,10.439a7.309,7.309,0,0,0-.47-2.484A5.172,5.172,0,0,0,21.224,5a7.429,7.429,0,0,0-2.455-.471c-1.08-.049-1.422-.062-4.165-.062s-3.094,0-4.166.062A7.429,7.429,0,0,0,7.985,5,5.169,5.169,0,0,0,5.028,7.955a7.336,7.336,0,0,0-.47,2.449c-.049,1.079-.063,1.421-.063,4.159s0,3.087.063,4.159a7.378,7.378,0,0,0,.47,2.451,5.172,5.172,0,0,0,2.958,2.95,7.4,7.4,0,0,0,2.453.5c1.081.049,1.424.063,4.166.063s3.094,0,4.166-.063a7.411,7.411,0,0,0,2.455-.469,5.178,5.178,0,0,0,2.957-2.952,7.352,7.352,0,0,0,.47-2.451c.049-1.078.063-1.42.063-4.159s0-3.085-.065-4.158ZM14.6,19.74a5.182,5.182,0,1,1,5.191-5.181A5.185,5.185,0,0,1,14.6,19.74ZM20,10.392A1.208,1.208,0,1,1,21.2,9.183,1.208,1.208,0,0,1,20,10.392Z" fill=""/>
    <path id="Контур_41" data-name="Контур 41" d="M20.233,16.837a3.374,3.374,0,1,1-3.374-3.374,3.374,3.374,0,0,1,3.374,3.374Z" transform="translate(-2.262 -2.28)" fill=""/>
  </g>
</svg>
