<svg id="Компонент_20_2" data-name="Компонент 20 – 2" xmlns="http://www.w3.org/2000/svg" width="29.917" height="29.968" viewBox="0 0 29.917 29.968">
  <g id="bxl-instagram-alt" transform="translate(-4.495 -4.47)">
    <path id="Контур_40" data-name="Контур 40" d="M34.317,13.316a10.849,10.849,0,0,0-.7-3.682A7.659,7.659,0,0,0,29.247,5.26a10.975,10.975,0,0,0-3.632-.7c-1.6-.072-2.1-.092-6.163-.092s-4.578,0-6.164.092a10.975,10.975,0,0,0-3.63.7A7.655,7.655,0,0,0,5.284,9.635a10.889,10.889,0,0,0-.7,3.63c-.072,1.6-.093,2.107-.093,6.164s0,4.576.093,6.164a10.951,10.951,0,0,0,.7,3.633A7.659,7.659,0,0,0,9.66,33.6a10.939,10.939,0,0,0,3.63.748c1.6.072,2.107.093,6.164.093s4.578,0,6.164-.093a10.948,10.948,0,0,0,3.632-.7,7.668,7.668,0,0,0,4.375-4.375,10.913,10.913,0,0,0,.7-3.633c.072-1.6.093-2.1.093-6.164s0-4.572-.1-6.163ZM19.443,27.1a7.68,7.68,0,1,1,7.681-7.68,7.678,7.678,0,0,1-7.681,7.68ZM27.43,13.247a1.79,1.79,0,1,1,1.789-1.791A1.789,1.789,0,0,1,27.43,13.247Z" transform="translate(0)" fill=""/>
    <path id="Контур_41" data-name="Контур 41" d="M23.464,18.453a4.989,4.989,0,1,1-4.989-4.99,4.99,4.99,0,0,1,4.989,4.99Z" transform="translate(0.967 0.968)" fill=""/>
  </g>
  <path id="instagram" d="M14.47,3c-3.115,0-3.505.014-4.729.069A8.416,8.416,0,0,0,6.957,3.6,5.619,5.619,0,0,0,4.925,4.932,5.644,5.644,0,0,0,3.6,6.971a8.512,8.512,0,0,0-.534,2.794C3.013,10.992,3,11.384,3,14.509s.013,3.517.069,4.745A8.5,8.5,0,0,0,3.6,22.048a5.87,5.87,0,0,0,3.355,3.367,8.431,8.431,0,0,0,2.784.536c1.223.055,1.614.069,4.729.069s3.505-.014,4.729-.069a8.416,8.416,0,0,0,2.784-.536,5.87,5.87,0,0,0,3.355-3.367,8.512,8.512,0,0,0,.534-2.794c.055-1.228.069-1.62.069-4.745s-.014-3.517-.069-4.745a8.5,8.5,0,0,0-.534-2.794,5.644,5.644,0,0,0-1.323-2.039A5.619,5.619,0,0,0,21.983,3.6,8.431,8.431,0,0,0,19.2,3.068C17.975,3.014,17.585,3,14.47,3m0,2.074c3.062,0,3.425.012,4.634.067a6.353,6.353,0,0,1,2.131.4,3.8,3.8,0,0,1,2.177,2.185,6.407,6.407,0,0,1,.395,2.137c.055,1.215.067,1.577.067,4.651s-.011,3.437-.067,4.65a6.454,6.454,0,0,1-.395,2.138,3.8,3.8,0,0,1-2.177,2.184,6.346,6.346,0,0,1-2.13.4c-1.209.055-1.571.067-4.635.067s-3.426-.012-4.634-.067a6.393,6.393,0,0,1-2.131-.4A3.8,3.8,0,0,1,5.528,21.3a6.367,6.367,0,0,1-.395-2.137c-.055-1.215-.067-1.577-.067-4.651s.011-3.437.067-4.65a6.414,6.414,0,0,1,.395-2.138A3.6,3.6,0,0,1,6.386,6.4,3.568,3.568,0,0,1,7.7,5.537a6.306,6.306,0,0,1,2.13-.4c1.21-.055,1.571-.067,4.635-.067m0,13.272a3.836,3.836,0,1,1,3.823-3.836,3.829,3.829,0,0,1-3.823,3.836m0-9.746a5.91,5.91,0,1,0,5.89,5.91A5.9,5.9,0,0,0,14.47,8.6m7.5-.233a1.376,1.376,0,1,1-1.376-1.381,1.379,1.379,0,0,1,1.376,1.381" transform="translate(0 0)" fill="" fill-rule="evenodd" opacity="0"/>
</svg>
